<svg width="141" height="48" fill="none" xmlns="http://www.w3.org/2000/svg"><g clip-path="url(#clip0_2276_122037)"><path d="M106.662 2.33545V27.4776H111.805V16.9315H116.268V27.4776H121.392V2.33545H116.272V12.3534H111.805V2.33545H106.662zM66.9516 2.33545V27.4776H71.6641V11.4962L74.435 27.4776H77.572L80.3846 11.4962V27.4776H85.1156V2.33545H78.1048L76.0336 14.4246 73.9624 2.33545H66.9516zM37.3472 2.33545L40.4842 13.5721 43.6166 2.33545H48.7368L43.2181 19.2297V27.4776H37.7504V19.2297L32.2271 2.33545H37.3472zM59.6119 2.31689H52.7958L48.3243 27.4776H53.4214L54.2786 21.4956H58.1245L58.9817 27.4776H64.0788L59.6119 2.31689zM56.1923 8.00239L57.4573 16.9314H54.9134L56.1923 8.00239zM99.2899 2.31689H92.4738L87.9977 27.4776H93.0947L93.9519 21.4956H97.7979L98.6504 27.4776H103.747L99.2899 2.31689zM95.8703 8.02092L97.1445 16.9314H94.596L95.8703 8.02092zM135.595 2.31689H128.783L124.307 27.4776H129.404L130.261 21.4956H134.107L134.964 27.4776H140.075L135.595 2.31689zM132.175 8.00239L133.449 16.9314H130.905L132.175 8.00239z" fill="#E0040B"/><path d="M0 14.874C0 11.9322 0.872346 9.05649 2.50673 6.61047C4.1411 4.16444 6.46411 2.258 9.18198 1.13222C11.8999 0.00644466 14.8905 -0.288111 17.7758 0.285807C20.6611 0.859724 23.3114 2.27634 25.3915 4.35651C27.4717 6.43668 28.8883 9.08697 29.4622 11.9723C30.0362 14.8575 29.7416 17.8482 28.6158 20.5661C27.4901 23.2839 25.5836 25.607 23.1376 27.2413C20.6916 28.8757 17.8158 29.7481 14.874 29.7481C10.9292 29.7481 7.14592 28.181 4.3565 25.3916C1.56708 22.6021 0 18.8189 0 14.874H0Z" fill="url(#paint0_radial_2276_122037)"/><path d="M14.874 1.04736C18.6797 1.0535 22.3273 2.56959 25.0162 5.26276C27.705 7.95593 29.2152 11.606 29.2152 15.4117V15.4117C29.2152 19.2173 27.705 22.8674 25.0162 25.5606C22.3273 28.2538 18.6797 29.7699 14.874 29.776V29.776C11.0684 29.7699 7.42071 28.2538 4.73189 25.5606C2.04306 22.8674 0.532862 19.2173 0.532867 15.4117V15.4117C0.532862 11.606 2.04306 7.95593 4.73189 5.26276C7.42071 2.56959 11.0684 1.0535 14.874 1.04736V1.04736ZM5.09702 22.0563C6.18145 23.6502 7.63926 24.9547 9.34339 25.856C11.0475 26.7573 12.9462 27.2282 14.874 27.2275V27.2275C16.8024 27.2277 18.7016 26.7567 20.4064 25.8555C22.1112 24.9542 23.5699 23.65 24.6557 22.0563V22.0563V22.0193L26.6852 22.4826C26.7263 22.4827 26.7668 22.4721 26.8025 22.4518C26.8383 22.4315 26.8681 22.4022 26.8891 22.3668C26.9291 22.3356 26.957 22.2913 26.9679 22.2417V22.2417C26.9675 22.1916 26.9513 22.1429 26.9215 22.1027V22.1027L25.5314 20.5736V20.5319C26.3056 18.9296 26.7065 17.1727 26.7037 15.3931V15.3931C26.704 12.4071 25.5759 9.53121 23.5454 7.34175C21.5149 5.1523 18.732 3.811 15.7544 3.5866H15.7081L15.0918 1.6034C15.0729 1.56159 15.0423 1.52618 15.0036 1.5015C14.9649 1.47682 14.9199 1.46392 14.874 1.46439C14.8285 1.46298 14.7837 1.47554 14.7456 1.5004C14.7075 1.52526 14.6779 1.56121 14.6609 1.6034V1.6034L14.0353 3.58197H13.9936C11.0148 3.80419 8.23016 5.14469 6.19849 7.33449C4.16682 9.52429 3.03841 12.4014 3.03967 15.3885V15.3885C3.03758 17.1674 3.43671 18.9239 4.20735 20.5272V20.5272V20.5689L2.81726 22.098C2.7898 22.1407 2.77681 22.1911 2.78019 22.2417V22.2417C2.78227 22.2822 2.79335 22.3218 2.81262 22.3575V22.3575C2.83393 22.3926 2.86384 22.4217 2.89952 22.4419C2.9352 22.4622 2.97547 22.473 3.01651 22.4734V22.4734L5.04605 22.01L5.06921 22.0471L5.09702 22.0563Z" fill="#1A0000"/><path d="M15.8517 25.5591V18.6086L14.874 18.0387L13.901 18.604V25.5545H12.5804V19.3639L11.4637 20.008C11.1161 20.2104 10.7213 20.3175 10.3191 20.3185V20.3185C10.0086 20.3179 9.7013 20.2548 9.41558 20.1331V20.1331C9.23651 20.058 9.04447 20.0186 8.85027 20.0173C8.60078 20.0173 8.3559 20.0846 8.14133 20.2119C7.94728 20.3203 7.78205 20.4736 7.6595 20.6591C7.53695 20.8445 7.46065 21.0566 7.43701 21.2776V21.3147L3.12771 22.3156H3.09064C3.06645 22.3148 3.04291 22.3075 3.02252 22.2944C3.00213 22.2814 2.98564 22.2631 2.9748 22.2414V22.2414C2.96848 22.2187 2.96848 22.1947 2.9748 22.1719V22.1719C2.97608 22.1377 2.98918 22.1049 3.01187 22.0792V22.0792L6.03301 18.8357H6.07472C6.25364 18.9113 6.44578 18.9507 6.64002 18.9515V18.9515C6.88909 18.9529 7.13394 18.8873 7.34897 18.7616V18.7616C7.54156 18.6514 7.70562 18.4976 7.82795 18.3125C7.95027 18.1274 8.02746 17.9162 8.05329 17.6958V17.6958C8.09728 17.3424 8.22216 17.0038 8.41825 16.7065C8.61434 16.4091 8.87634 16.161 9.1839 15.9814L10.3006 15.3373L4.92094 12.293L5.56038 11.1531L11.5841 14.6283L12.5665 14.063V12.9324L6.54272 9.45718L7.2146 8.34047L12.5804 11.4358V10.1244C12.5774 9.76424 12.6599 9.40849 12.821 9.08632C12.9821 8.76415 13.2172 8.48473 13.5071 8.27097V8.27097C13.6849 8.13764 13.8293 7.96488 13.929 7.76629C14.0287 7.56769 14.081 7.34867 14.0817 7.12646V7.12646C14.0744 6.90989 14.0175 6.69788 13.9155 6.5067C13.8135 6.31553 13.669 6.15028 13.4932 6.02365V6.02365L13.4376 5.97731L14.7257 1.74679C14.7338 1.71865 14.7509 1.69392 14.7743 1.67635C14.7977 1.65879 14.8262 1.64935 14.8555 1.64948V1.64948C14.885 1.64855 14.9139 1.65768 14.9374 1.67536C14.961 1.69305 14.9779 1.71824 14.9852 1.74679L16.2734 5.97731L16.2363 6.00511C16.0581 6.13697 15.9133 6.30877 15.8135 6.50673C15.7137 6.7047 15.6617 6.9233 15.6617 7.14499C15.6625 7.36721 15.7147 7.58622 15.8144 7.78482C15.9141 7.98342 16.0585 8.15617 16.2363 8.2895V8.2895C16.526 8.50353 16.7609 8.78299 16.9219 9.10511C17.083 9.42722 17.1656 9.78284 17.163 10.143V10.143V11.4311L22.5335 8.34047L23.1914 9.48035L17.1677 12.9556V14.0862L18.1454 14.6515L24.1691 11.1763L24.8271 12.3161L19.4613 15.3883L20.578 16.0323C20.8856 16.212 21.1476 16.4601 21.3437 16.7574C21.5398 17.0548 21.6647 17.3933 21.7087 17.7468C21.7345 17.9671 21.8117 18.1784 21.934 18.3635C22.0563 18.5486 22.2204 18.7024 22.413 18.8125C22.628 18.9382 22.8729 19.0038 23.1219 19.0025C23.3162 19.0016 23.5083 18.9623 23.6872 18.8867V18.8867H23.7289L26.7501 22.1302C26.7623 22.1423 26.7719 22.1568 26.7783 22.1727C26.7846 22.1886 26.7877 22.2057 26.7871 22.2229C26.7935 22.2456 26.7935 22.2697 26.7871 22.2924V22.2924C26.7757 22.3132 26.7589 22.3306 26.7386 22.3428C26.7182 22.355 26.695 22.3616 26.6713 22.3619H26.6389L22.3157 21.3147V21.2684C22.292 21.0474 22.2157 20.8352 22.0932 20.6498C21.9706 20.4644 21.8054 20.311 21.6114 20.2026V20.2026C21.3968 20.0753 21.1519 20.0081 20.9024 20.008C20.7097 20.0089 20.519 20.0482 20.3417 20.1238C20.0488 20.2486 19.7334 20.3117 19.415 20.3092C19.0128 20.3083 18.618 20.2012 18.2705 19.9987V19.9987L17.1538 19.3547V25.5591H15.8517ZM17.1677 16.7135V17.8441L18.9424 18.8681C19.092 18.9535 19.2613 18.9982 19.4335 18.9979V18.9979C19.603 19.0012 19.7704 18.9602 19.9191 18.8789C20.0678 18.7976 20.1927 18.6789 20.2815 18.5345V18.5345C20.3663 18.3864 20.411 18.2187 20.4112 18.048V18.048C20.4158 17.8725 20.3731 17.699 20.2875 17.5457C20.2019 17.3924 20.0765 17.265 19.9247 17.1768L18.15 16.1482L17.1723 16.7135H17.1677ZM9.82798 17.1768C9.67873 17.2625 9.55473 17.386 9.46849 17.5348C9.38225 17.6837 9.33682 17.8527 9.33681 18.0248V18.0248C9.33316 18.2033 9.378 18.3795 9.46655 18.5345C9.5553 18.6789 9.68022 18.7976 9.82895 18.8789C9.97768 18.9602 10.1451 19.0012 10.3145 18.9979C10.4867 18.9976 10.6558 18.9529 10.8057 18.8681V18.8681L12.5804 17.8441V16.7135L11.5841 16.1482L9.81407 17.1722L9.82798 17.1768ZM14.874 16.593L14.9065 16.5374L14.874 16.593ZM13.901 14.8276V15.9582L14.8787 16.5235L15.8564 15.9582V14.8276L14.874 14.2576L13.901 14.8276ZM13.901 12.1771L14.8787 12.7424L15.8564 12.1771V10.1244C15.8564 9.86513 15.7533 9.61644 15.57 9.43309C15.3866 9.24974 15.138 9.14673 14.8787 9.14673C14.6197 9.14795 14.3718 9.25134 14.1887 9.43444C14.0056 9.61753 13.9022 9.8655 13.901 10.1244V10.1244V12.1725V12.1771Z" fill="#1A0000"/><path d="M14.874 0.880371C12.0495 0.880371 9.28846 1.71793 6.93998 3.28714C4.59149 4.85635 2.76107 7.08672 1.68019 9.69622C0.599297 12.3057 0.316487 15.1771 0.867519 17.9474C1.41855 20.7176 2.77868 23.2622 4.7759 25.2594C6.77312 27.2566 9.31774 28.6168 12.088 29.1678C14.8582 29.7188 17.7296 29.436 20.3391 28.3551C22.9486 27.2742 25.179 25.4438 26.7482 23.0953C28.3174 20.7469 29.1549 17.9858 29.1549 15.1613C29.1549 13.2859 28.7856 11.4289 28.0679 9.69622C27.3502 7.96358 26.2983 6.38926 24.9722 5.06315C23.6461 3.73705 22.0717 2.68512 20.3391 1.96744C18.6065 1.24976 16.7494 0.880371 14.874 0.880371V0.880371ZM26.6991 22.3064L24.7066 21.843C23.615 23.4447 22.1486 24.7554 20.435 25.6613C18.7213 26.5671 16.8124 27.0406 14.874 27.0406C12.9357 27.0406 11.0267 26.5671 9.3131 25.6613C7.59947 24.7554 6.13307 23.4447 5.04142 21.843L3.05358 22.3064C2.99867 22.3099 2.94387 22.2979 2.8955 22.2717C2.84713 22.2454 2.80716 22.2061 2.7802 22.1581C2.7483 22.1092 2.73131 22.052 2.73131 21.9936C2.73131 21.9352 2.7483 21.878 2.7802 21.8291L4.17029 20.3278C3.3299 18.5823 2.92819 16.6582 3.00004 14.7223C3.0719 12.7864 3.61514 10.8972 4.58261 9.21888C5.55009 7.54052 6.91256 6.12364 8.55177 5.09123C10.191 4.05881 12.0574 3.44206 13.989 3.2945L14.6006 1.353C14.6239 1.2997 14.6621 1.25428 14.7106 1.22221C14.7591 1.19014 14.8159 1.17281 14.874 1.17229C14.9323 1.17221 14.9893 1.18931 15.038 1.22145C15.0866 1.25359 15.1246 1.29935 15.1474 1.353L15.7544 3.2945C17.688 3.43855 19.5572 4.05276 21.1994 5.08371C22.8416 6.11467 24.207 7.53117 25.1771 9.21004C26.1472 10.8889 26.6924 12.7793 26.7655 14.7169C26.8385 16.6545 26.4372 18.5807 25.5963 20.3278L26.9864 21.8291C27.0183 21.878 27.0353 21.9352 27.0353 21.9936C27.0353 22.052 27.0183 22.1092 26.9864 22.1581C26.9571 22.2072 26.9147 22.2471 26.8639 22.2733C26.8132 22.2995 26.7561 22.311 26.6991 22.3064V22.3064Z" fill="#1A0000"/><path d="M26.7084 21.9123L23.7197 18.7151C23.507 18.8069 23.2758 18.8477 23.0445 18.8344C22.8132 18.8211 22.5882 18.7539 22.3875 18.6382C22.1868 18.5225 22.0159 18.3616 21.8884 18.1682C21.7608 17.9748 21.6803 17.7543 21.653 17.5242V17.5242C21.6131 17.1797 21.4929 16.8493 21.3022 16.5597C21.1115 16.27 20.8555 16.029 20.5549 15.8561L19.3455 15.1564L24.7437 12.0472L24.146 11.0139L18.1222 14.4799L17.0843 13.8775V12.6728L23.0848 9.21143L22.4871 8.17813L17.1074 11.2919V9.90185C17.1096 9.55421 17.0303 9.21091 16.8757 8.89949C16.7212 8.58807 16.4959 8.3172 16.2178 8.10862V8.10862C16.0327 7.97011 15.8824 7.79037 15.779 7.58365C15.6755 7.37694 15.6216 7.14895 15.6216 6.91778C15.6216 6.6866 15.6755 6.45861 15.779 6.2519C15.8824 6.04518 16.0327 5.86544 16.2178 5.72693L14.9435 1.55664C14.9383 1.54245 14.9288 1.53021 14.9163 1.52157C14.9039 1.51293 14.8891 1.5083 14.874 1.5083C14.8589 1.5083 14.8441 1.51293 14.8317 1.52157C14.8193 1.53021 14.8098 1.54245 14.8045 1.55664L13.5303 5.72693C13.7153 5.86544 13.8656 6.04518 13.9691 6.2519C14.0726 6.45861 14.1265 6.6866 14.1265 6.91778C14.1265 7.14895 14.0726 7.37694 13.9691 7.58365C13.8656 7.79037 13.7153 7.97011 13.5303 8.10862C13.2511 8.31576 13.0243 8.58546 12.8682 8.89607C12.7121 9.20669 12.631 9.54957 12.6313 9.89721V11.2873L7.23776 8.17349L6.64002 9.2068L12.6638 12.6728V13.8729L11.5841 14.4753L5.60208 11.0093L5.00434 12.0472L10.4072 15.1657L9.19779 15.8654C8.89785 16.0391 8.64247 16.2803 8.45186 16.5698C8.26126 16.8594 8.14066 17.1893 8.09962 17.5335V17.5335C8.07157 17.7639 7.98997 17.9846 7.86134 18.1779C7.73272 18.3711 7.56065 18.5316 7.35889 18.6464C7.15714 18.7613 6.9313 18.8273 6.69946 18.8392C6.46762 18.8511 6.23621 18.8086 6.02374 18.7151L3.03503 21.9123C3.02487 21.9247 3.01932 21.9402 3.01932 21.9563C3.01932 21.9723 3.02487 21.9879 3.03503 22.0003C3.04258 22.014 3.05426 22.025 3.06841 22.0316C3.08255 22.0383 3.09844 22.0403 3.11381 22.0374L7.3814 21.0458C7.4082 20.8159 7.48826 20.5955 7.61522 20.402C7.74219 20.2085 7.91255 20.0473 8.11276 19.9312C8.31296 19.8152 8.53749 19.7474 8.76849 19.7333C8.99949 19.7193 9.23057 19.7593 9.44337 19.8503C9.76254 19.9876 10.1094 20.0482 10.4562 20.0273C10.803 20.0064 11.1401 19.9045 11.4405 19.7298L12.6499 19.0301V25.267H13.8407V18.3166L14.8833 17.7188L15.9259 18.3166V25.267H17.1167V19.0301L18.3261 19.7252C18.6264 19.8999 18.9635 20.0017 19.3103 20.0227C19.6571 20.0436 20.004 19.983 20.3232 19.8457C20.5335 19.7554 20.762 19.7154 20.9905 19.7291C21.219 19.7428 21.4411 19.8097 21.6391 19.9244C21.8404 20.0404 22.0118 20.2017 22.1397 20.3956C22.2676 20.5895 22.3485 20.8105 22.3759 21.0411L26.6389 22.0327C26.6549 22.0353 26.6713 22.0332 26.6861 22.0266C26.7009 22.0201 26.7135 22.0093 26.7223 21.9957C26.7281 21.9819 26.7299 21.9667 26.7274 21.952C26.725 21.9372 26.7184 21.9234 26.7084 21.9123V21.9123ZM14.874 16.3519L13.8314 15.7541V14.5494L14.874 13.9517L15.9166 14.5494V15.7541L14.874 16.3519ZM13.8314 9.86478C13.8314 9.58827 13.9413 9.32309 14.1368 9.12757C14.3323 8.93205 14.5975 8.82221 14.874 8.82221C15.1505 8.82221 15.4157 8.93205 15.6112 9.12757C15.8067 9.32309 15.9166 9.58827 15.9166 9.86478V11.9499L14.874 12.5523L13.8314 11.9499V9.86478ZM10.8381 18.6687C10.5985 18.807 10.3137 18.8444 10.0465 18.7727C9.7793 18.701 9.55151 18.5261 9.41326 18.2864C9.275 18.0468 9.23761 17.7621 9.3093 17.4948C9.38099 17.2276 9.55589 16.9998 9.79553 16.8616L11.5841 15.8515L12.6267 16.4492V17.6539L10.8381 18.6687ZM20.3325 18.2888C20.2643 18.4068 20.1736 18.5103 20.0654 18.5933C19.9573 18.6763 19.8339 18.7371 19.7022 18.7724C19.5705 18.8077 19.4332 18.8167 19.2981 18.7989C19.1629 18.7811 19.0326 18.7369 18.9146 18.6687L17.1074 17.6261V16.4492L18.1454 15.8468L19.9525 16.894C20.0712 16.9622 20.1752 17.0531 20.2586 17.1616C20.342 17.2701 20.4031 17.394 20.4384 17.5263C20.4737 17.6585 20.4825 17.7964 20.4643 17.932C20.4462 18.0676 20.4013 18.1983 20.3325 18.3166V18.2888Z" fill="#1A0000"/><path d="M14.874 0.593262C12.0495 0.593262 9.28846 1.43082 6.93998 3.00003C4.59149 4.56924 2.76107 6.79961 1.68019 9.40911C0.599297 12.0186 0.316487 14.89 0.867519 17.6602C1.41855 20.4305 2.77868 22.9751 4.7759 24.9723C6.77312 26.9695 9.31774 28.3297 12.088 28.8807C14.8582 29.4317 17.7296 29.1489 20.3391 28.068C22.9486 26.9871 25.179 25.1567 26.7482 22.8082C28.3174 20.4597 29.1549 17.6987 29.1549 14.8742C29.1549 12.9988 28.7856 11.1417 28.0679 9.40911C27.3502 7.67647 26.2983 6.10215 24.9722 4.77604C23.6461 3.44994 22.0717 2.39801 20.3391 1.68033C18.6065 0.962649 16.7494 0.593262 14.874 0.593262V0.593262ZM26.6991 22.0193L24.7066 21.5559C23.6143 23.1566 22.1477 24.4665 20.4341 25.3716C18.7206 26.2768 16.812 26.75 14.874 26.75C12.9361 26.75 11.0275 26.2768 9.31394 25.3716C7.6004 24.4665 6.13377 23.1566 5.04142 21.5559L3.05358 21.9915C3.00139 21.9979 2.94843 21.9901 2.90031 21.9689C2.85219 21.9476 2.81069 21.9138 2.7802 21.871C2.7483 21.8221 2.73131 21.7649 2.73131 21.7065C2.73131 21.6481 2.7483 21.5909 2.7802 21.542L4.17029 20.0407C3.3299 18.2952 2.92819 16.3711 3.00004 14.4351C3.0719 12.4992 3.61514 10.6101 4.58261 8.93177C5.55009 7.25341 6.91256 5.83653 8.55177 4.80412C10.191 3.7717 12.0574 3.15495 13.989 3.00739L14.6006 1.06589C14.6239 1.01259 14.6621 0.967169 14.7106 0.935101C14.7591 0.903033 14.8159 0.885696 14.874 0.885182C14.9323 0.885105 14.9893 0.902204 15.038 0.934344C15.0866 0.966485 15.1246 1.01224 15.1474 1.06589L15.7544 3.00739C17.688 3.15144 19.5572 3.76565 21.1994 4.7966C22.8416 5.82756 24.207 7.24406 25.1771 8.92293C26.1472 10.6018 26.6924 12.4922 26.7655 14.4298C26.8385 16.3674 26.4372 18.2935 25.5963 20.0407L26.9864 21.542C27.0183 21.5909 27.0353 21.6481 27.0353 21.7065C27.0353 21.7649 27.0183 21.8221 26.9864 21.871C26.9571 21.9201 26.9147 21.96 26.8639 21.9862C26.8132 22.0124 26.7561 22.0239 26.6991 22.0193V22.0193Z" fill="url(#paint1_radial_2276_122037)"/><path d="M26.7084 21.6253L23.7197 18.4281C23.507 18.5199 23.2758 18.5608 23.0445 18.5475C22.8132 18.5341 22.5883 18.4669 22.3875 18.3513C22.1868 18.2356 22.0159 18.0747 21.8884 17.8813C21.7608 17.6878 21.6803 17.4673 21.653 17.2373V17.2373C21.6138 16.8919 21.4939 16.5607 21.3032 16.2701C21.1124 15.9796 20.8561 15.7379 20.5549 15.5645L19.3409 14.8741L24.7437 11.7557L24.146 10.7224L18.1222 14.1883L17.0843 13.5859V12.3812L23.0848 8.91986L22.5103 7.87729L17.1074 11.005V9.61491C17.1096 9.26727 17.0303 8.92397 16.8757 8.61255C16.7212 8.30113 16.4959 8.03026 16.2178 7.82168V7.82168C16.0327 7.68317 15.8824 7.50343 15.779 7.29671C15.6755 7.09 15.6216 6.86201 15.6216 6.63084C15.6216 6.39966 15.6755 6.17167 15.779 5.96496C15.8824 5.75824 16.0327 5.5785 16.2178 5.43999L14.9435 1.2697C14.9435 1.25127 14.9362 1.23359 14.9232 1.22055C14.9101 1.20752 14.8924 1.2002 14.874 1.2002C14.8556 1.2002 14.8379 1.20752 14.8249 1.22055C14.8118 1.23359 14.8045 1.25127 14.8045 1.2697L13.5303 5.43999C13.7153 5.5785 13.8656 5.75824 13.9691 5.96496C14.0726 6.17167 14.1265 6.39966 14.1265 6.63084C14.1265 6.86201 14.0726 7.09 13.9691 7.29671C13.8656 7.50343 13.7153 7.68317 13.5303 7.82168C13.2511 8.02882 13.0243 8.29852 12.8682 8.60913C12.7121 8.91975 12.631 9.26263 12.6313 9.61027V11.0004L7.23776 7.87729L6.64002 8.91059L12.6638 12.3766V13.5767L11.5841 14.1883L5.60208 10.7224L5.00434 11.7557L10.4072 14.8741L9.19779 15.5738C8.89727 15.748 8.64153 15.9899 8.45089 16.2803C8.26025 16.5707 8.13997 16.9015 8.09962 17.2465V17.2465C8.07157 17.477 7.98997 17.6977 7.86134 17.8909C7.73272 18.0842 7.56065 18.2447 7.35889 18.3595C7.15714 18.4743 6.9313 18.5403 6.69946 18.5523C6.46762 18.5642 6.23621 18.5217 6.02374 18.4281L3.03503 21.6253C3.02487 21.6378 3.01932 21.6533 3.01932 21.6694C3.01932 21.6854 3.02487 21.701 3.03503 21.7134C3.04258 21.7271 3.05426 21.738 3.06841 21.7447C3.08255 21.7513 3.09844 21.7534 3.11381 21.7504L7.3814 20.7588C7.4082 20.529 7.48826 20.3085 7.61523 20.115C7.74219 19.9216 7.91255 19.7604 8.11276 19.6443C8.31296 19.5282 8.5375 19.4605 8.76849 19.4464C8.99949 19.4324 9.23057 19.4724 9.44338 19.5634C9.75987 19.7019 10.1043 19.7649 10.4493 19.7472C10.7944 19.7295 11.1306 19.6316 11.4312 19.4614L12.6406 18.7617V24.9801H13.8314V18.0713L14.874 17.4736L15.9166 18.0713V24.9801H17.1074V18.7432L18.3168 19.4614C18.6175 19.6354 18.9548 19.7364 19.3016 19.7565C19.6484 19.7767 19.9951 19.7153 20.3139 19.5773V19.5773C20.5261 19.4847 20.7572 19.4435 20.9883 19.4572C21.2194 19.4709 21.444 19.539 21.6438 19.656C21.845 19.772 22.0164 19.9333 22.1443 20.1272C22.2722 20.3211 22.3531 20.5421 22.3805 20.7727L26.6435 21.7643C26.6595 21.7669 26.6759 21.7648 26.6907 21.7582C26.7055 21.7516 26.7181 21.7409 26.7269 21.7273C26.7367 21.7109 26.7402 21.6916 26.7368 21.6728C26.7333 21.6541 26.7233 21.6372 26.7084 21.6253V21.6253ZM14.874 16.0789L13.8314 15.4765V14.2717L14.874 13.674L15.9166 14.2764V15.4765L14.874 16.0789ZM13.8314 9.59174C13.8314 9.31523 13.9413 9.05005 14.1368 8.85453C14.3323 8.65901 14.5975 8.54917 14.874 8.54917C15.1505 8.54917 15.4157 8.65901 15.6112 8.85453C15.8067 9.05005 15.9166 9.31523 15.9166 9.59174V11.6769L14.874 12.2793L13.8314 11.6769V9.59174ZM10.8381 18.3957C10.5985 18.5339 10.3137 18.5713 10.0465 18.4996C9.7793 18.4279 9.55151 18.253 9.41326 18.0134C9.275 17.7738 9.23761 17.489 9.3093 17.2218C9.38099 16.9546 9.55589 16.7268 9.79553 16.5886L11.5841 15.5645L12.6267 16.1669V17.367L10.8381 18.3957ZM20.3325 18.0157C20.2643 18.1338 20.1736 18.2372 20.0654 18.3202C19.9573 18.4032 19.8339 18.4641 19.7022 18.4994C19.5705 18.5347 19.4332 18.5437 19.2981 18.5259C19.1629 18.5081 19.0326 18.4638 18.9146 18.3957L17.1074 17.3531V16.1484L18.1454 15.5506L19.9525 16.5932C20.073 16.6613 20.1787 16.7529 20.2633 16.8625C20.3479 16.9721 20.4098 17.0975 20.4452 17.2313C20.4806 17.3652 20.4888 17.5048 20.4695 17.6419C20.4501 17.779 20.4035 17.9108 20.3325 18.0296V18.0157Z" fill="url(#paint2_radial_2276_122037)"/><g style="mix-blend-mode:lighten" opacity=".4"><path d="M14.874 0.593262C12.0495 0.593262 9.28846 1.43082 6.93998 3.00003C4.59149 4.56924 2.76107 6.79961 1.68019 9.40911C0.599297 12.0186 0.316487 14.89 0.867519 17.6602C1.41855 20.4305 2.77868 22.9751 4.7759 24.9723C6.77312 26.9695 9.31774 28.3297 12.088 28.8807C14.8582 29.4317 17.7296 29.1489 20.3391 28.068C22.9486 26.9871 25.179 25.1567 26.7482 22.8082C28.3174 20.4597 29.1549 17.6987 29.1549 14.8742C29.1549 12.9988 28.7856 11.1417 28.0679 9.40911C27.3502 7.67647 26.2983 6.10215 24.9722 4.77604C23.6461 3.44994 22.0717 2.39801 20.3391 1.68033C18.6065 0.962649 16.7494 0.593262 14.874 0.593262V0.593262ZM26.6991 22.0193L24.7066 21.5559C23.6143 23.1566 22.1477 24.4665 20.4341 25.3716C18.7206 26.2768 16.812 26.75 14.874 26.75C12.9361 26.75 11.0275 26.2768 9.31394 25.3716C7.6004 24.4665 6.13377 23.1566 5.04142 21.5559L3.05358 21.9915C3.00139 21.9979 2.94843 21.9901 2.90031 21.9689C2.85219 21.9476 2.81069 21.9138 2.7802 21.871C2.7483 21.8221 2.73131 21.7649 2.73131 21.7065C2.73131 21.6481 2.7483 21.5909 2.7802 21.542L4.17029 20.0407C3.3299 18.2952 2.92819 16.3711 3.00004 14.4351C3.0719 12.4992 3.61514 10.6101 4.58261 8.93177C5.55009 7.25341 6.91256 5.83653 8.55177 4.80412C10.191 3.7717 12.0574 3.15495 13.989 3.00739L14.6006 1.06589C14.6239 1.01259 14.6621 0.967169 14.7106 0.935101C14.7591 0.903033 14.8159 0.885696 14.874 0.885182C14.9323 0.885105 14.9893 0.902204 15.038 0.934344C15.0866 0.966485 15.1246 1.01224 15.1474 1.06589L15.7544 3.00739C17.688 3.15144 19.5572 3.76565 21.1994 4.7966C22.8416 5.82756 24.207 7.24406 25.1771 8.92293C26.1472 10.6018 26.6924 12.4922 26.7655 14.4298C26.8385 16.3674 26.4372 18.2935 25.5963 20.0407L26.9864 21.542C27.0183 21.5909 27.0353 21.6481 27.0353 21.7065C27.0353 21.7649 27.0183 21.8221 26.9864 21.871C26.9571 21.9201 26.9147 21.96 26.8639 21.9862C26.8132 22.0124 26.7561 22.0239 26.6991 22.0193V22.0193Z" fill="#fff" opacity=".4"/><g opacity=".4"><path d="M14.874 0.593262C12.0495 0.593262 9.28846 1.43082 6.93998 3.00003C4.59149 4.56924 2.76107 6.79961 1.68019 9.40911C0.599297 12.0186 0.316487 14.89 0.867519 17.6602C1.41855 20.4305 2.77868 22.9751 4.7759 24.9723C6.77312 26.9695 9.31774 28.3297 12.088 28.8807C14.8582 29.4317 17.7296 29.1489 20.3391 28.068C22.9486 26.9871 25.179 25.1567 26.7482 22.8082C28.3174 20.4597 29.1549 17.6987 29.1549 14.8742C29.1549 12.9988 28.7856 11.1417 28.0679 9.40911C27.3502 7.67647 26.2983 6.10215 24.9722 4.77604C23.6461 3.44994 22.0717 2.39801 20.3391 1.68033C18.6065 0.962649 16.7494 0.593262 14.874 0.593262V0.593262ZM26.6991 22.0193L24.7066 21.5559C23.6143 23.1566 22.1477 24.4665 20.4341 25.3716C18.7206 26.2768 16.812 26.75 14.874 26.75C12.9361 26.75 11.0275 26.2768 9.31394 25.3716C7.6004 24.4665 6.13377 23.1566 5.04142 21.5559L3.05358 21.9915C3.00139 21.9979 2.94843 21.9901 2.90031 21.9689C2.85219 21.9476 2.81069 21.9138 2.7802 21.871C2.7483 21.8221 2.73131 21.7649 2.73131 21.7065C2.73131 21.6481 2.7483 21.5909 2.7802 21.542L4.17029 20.0407C3.3299 18.2952 2.92819 16.3711 3.00004 14.4351C3.0719 12.4992 3.61514 10.6101 4.58261 8.93177C5.55009 7.25341 6.91256 5.83653 8.55177 4.80412C10.191 3.7717 12.0574 3.15495 13.989 3.00739L14.6006 1.06589C14.6239 1.01259 14.6621 0.967169 14.7106 0.935101C14.7591 0.903033 14.8159 0.885696 14.874 0.885182C14.9323 0.885105 14.9893 0.902204 15.038 0.934344C15.0866 0.966485 15.1246 1.01224 15.1474 1.06589L15.7544 3.00739C17.688 3.15144 19.5572 3.76565 21.1994 4.7966C22.8416 5.82756 24.207 7.24406 25.1771 8.92293C26.1472 10.6018 26.6924 12.4922 26.7655 14.4298C26.8385 16.3674 26.4372 18.2935 25.5963 20.0407L26.9864 21.542C27.0183 21.5909 27.0353 21.6481 27.0353 21.7065C27.0353 21.7649 27.0183 21.8221 26.9864 21.871C26.9571 21.9201 26.9147 21.96 26.8639 21.9862C26.8132 22.0124 26.7561 22.0239 26.6991 22.0193V22.0193Z" fill="#2F322F" opacity=".81"/></g></g><g style="mix-blend-mode:lighten" opacity=".35"><path d="M26.7084 21.6253L23.7197 18.4281C23.507 18.5199 23.2758 18.5608 23.0445 18.5475C22.8132 18.5341 22.5883 18.4669 22.3875 18.3513C22.1868 18.2356 22.0159 18.0747 21.8884 17.8813C21.7608 17.6878 21.6803 17.4673 21.653 17.2373V17.2373C21.6138 16.8919 21.4939 16.5607 21.3032 16.2701C21.1124 15.9796 20.8561 15.7379 20.5549 15.5645L19.3409 14.8741L24.7437 11.7557L24.146 10.7224L18.1222 14.1883L17.0843 13.5859V12.3812L23.0848 8.91986L22.5103 7.87729L17.1074 11.005V9.61491C17.1096 9.26727 17.0303 8.92397 16.8757 8.61255C16.7212 8.30113 16.4959 8.03026 16.2178 7.82168V7.82168C16.0327 7.68317 15.8824 7.50343 15.779 7.29671C15.6755 7.09 15.6216 6.86201 15.6216 6.63084C15.6216 6.39966 15.6755 6.17167 15.779 5.96496C15.8824 5.75824 16.0327 5.5785 16.2178 5.43999L14.9435 1.2697C14.9435 1.25127 14.9362 1.23359 14.9232 1.22055C14.9101 1.20752 14.8924 1.2002 14.874 1.2002C14.8556 1.2002 14.8379 1.20752 14.8249 1.22055C14.8118 1.23359 14.8045 1.25127 14.8045 1.2697L13.5303 5.43999C13.7153 5.5785 13.8656 5.75824 13.9691 5.96496C14.0726 6.17167 14.1265 6.39966 14.1265 6.63084C14.1265 6.86201 14.0726 7.09 13.9691 7.29671C13.8656 7.50343 13.7153 7.68317 13.5303 7.82168C13.2511 8.02882 13.0243 8.29852 12.8682 8.60913C12.7121 8.91975 12.631 9.26263 12.6313 9.61027V11.0004L7.23776 7.87729L6.64002 8.91059L12.6638 12.3766V13.5767L11.5841 14.1883L5.60208 10.7224L5.00434 11.7557L10.4072 14.8741L9.19779 15.5738C8.89727 15.748 8.64153 15.9899 8.45089 16.2803C8.26025 16.5707 8.13997 16.9015 8.09962 17.2465V17.2465C8.07157 17.477 7.98997 17.6977 7.86134 17.8909C7.73272 18.0842 7.56065 18.2447 7.35889 18.3595C7.15714 18.4743 6.9313 18.5403 6.69946 18.5523C6.46762 18.5642 6.23621 18.5217 6.02374 18.4281L3.03503 21.6253C3.02487 21.6378 3.01932 21.6533 3.01932 21.6694C3.01932 21.6854 3.02487 21.701 3.03503 21.7134C3.04258 21.7271 3.05426 21.738 3.06841 21.7447C3.08255 21.7513 3.09844 21.7534 3.11381 21.7504L7.3814 20.7588C7.4082 20.529 7.48826 20.3085 7.61523 20.115C7.74219 19.9216 7.91255 19.7604 8.11276 19.6443C8.31296 19.5282 8.5375 19.4605 8.76849 19.4464C8.99949 19.4324 9.23057 19.4724 9.44338 19.5634C9.75987 19.7019 10.1043 19.7649 10.4493 19.7472C10.7944 19.7295 11.1306 19.6316 11.4312 19.4614L12.6406 18.7617V24.9801H13.8314V18.0713L14.874 17.4736L15.9166 18.0713V24.9801H17.1074V18.7432L18.3168 19.4614C18.6175 19.6354 18.9548 19.7364 19.3016 19.7565C19.6484 19.7767 19.9951 19.7153 20.3139 19.5773V19.5773C20.5261 19.4847 20.7572 19.4435 20.9883 19.4572C21.2194 19.4709 21.444 19.539 21.6438 19.656C21.845 19.772 22.0164 19.9333 22.1443 20.1272C22.2722 20.3211 22.3531 20.5421 22.3805 20.7727L26.6435 21.7643C26.6595 21.7669 26.6759 21.7648 26.6907 21.7582C26.7055 21.7516 26.7181 21.7409 26.7269 21.7273C26.7367 21.7109 26.7402 21.6916 26.7368 21.6728C26.7333 21.6541 26.7233 21.6372 26.7084 21.6253V21.6253ZM14.874 16.0789L13.8314 15.4765V14.2717L14.874 13.674L15.9166 14.2764V15.4765L14.874 16.0789ZM13.8314 9.59174C13.8314 9.31523 13.9413 9.05005 14.1368 8.85453C14.3323 8.65901 14.5975 8.54917 14.874 8.54917C15.1505 8.54917 15.4157 8.65901 15.6112 8.85453C15.8067 9.05005 15.9166 9.31523 15.9166 9.59174V11.6769L14.874 12.2793L13.8314 11.6769V9.59174ZM10.8381 18.3957C10.5985 18.5339 10.3137 18.5713 10.0465 18.4996C9.7793 18.4279 9.55151 18.253 9.41326 18.0134C9.275 17.7738 9.23761 17.489 9.3093 17.2218C9.38099 16.9546 9.55589 16.7268 9.79553 16.5886L11.5841 15.5645L12.6267 16.1669V17.367L10.8381 18.3957ZM20.3325 18.0157C20.2643 18.1338 20.1736 18.2372 20.0654 18.3202C19.9573 18.4032 19.8339 18.4641 19.7022 18.4994C19.5705 18.5347 19.4332 18.5437 19.2981 18.5259C19.1629 18.5081 19.0326 18.4638 18.9146 18.3957L17.1074 17.3531V16.1484L18.1454 15.5506L19.9525 16.5932C20.073 16.6613 20.1787 16.7529 20.2633 16.8625C20.3479 16.9721 20.4098 17.0975 20.4452 17.2313C20.4806 17.3652 20.4888 17.5048 20.4695 17.6419C20.4501 17.779 20.4035 17.9108 20.3325 18.0296V18.0157Z" fill="#fff" opacity=".35"/><g opacity=".35"><path d="M26.7084 21.6253L23.7197 18.4281C23.507 18.5199 23.2758 18.5608 23.0445 18.5475C22.8132 18.5341 22.5883 18.4669 22.3875 18.3513C22.1868 18.2356 22.0159 18.0747 21.8884 17.8813C21.7608 17.6878 21.6803 17.4673 21.653 17.2373V17.2373C21.6138 16.8919 21.4939 16.5607 21.3032 16.2701C21.1124 15.9796 20.8561 15.7379 20.5549 15.5645L19.3409 14.8741L24.7437 11.7557L24.146 10.7224L18.1222 14.1883L17.0843 13.5859V12.3812L23.0848 8.91986L22.5103 7.87729L17.1074 11.005V9.61491C17.1096 9.26727 17.0303 8.92397 16.8757 8.61255C16.7212 8.30113 16.4959 8.03026 16.2178 7.82168V7.82168C16.0327 7.68317 15.8824 7.50343 15.779 7.29671C15.6755 7.09 15.6216 6.86201 15.6216 6.63084C15.6216 6.39966 15.6755 6.17167 15.779 5.96496C15.8824 5.75824 16.0327 5.5785 16.2178 5.43999L14.9435 1.2697C14.9435 1.25127 14.9362 1.23359 14.9232 1.22055C14.9101 1.20752 14.8924 1.2002 14.874 1.2002C14.8556 1.2002 14.8379 1.20752 14.8249 1.22055C14.8118 1.23359 14.8045 1.25127 14.8045 1.2697L13.5303 5.43999C13.7153 5.5785 13.8656 5.75824 13.9691 5.96496C14.0726 6.17167 14.1265 6.39966 14.1265 6.63084C14.1265 6.86201 14.0726 7.09 13.9691 7.29671C13.8656 7.50343 13.7153 7.68317 13.5303 7.82168C13.2511 8.02882 13.0243 8.29852 12.8682 8.60913C12.7121 8.91975 12.631 9.26263 12.6313 9.61027V11.0004L7.23776 7.87729L6.64002 8.91059L12.6638 12.3766V13.5767L11.5841 14.1883L5.60208 10.7224L5.00434 11.7557L10.4072 14.8741L9.19779 15.5738C8.89727 15.748 8.64153 15.9899 8.45089 16.2803C8.26025 16.5707 8.13997 16.9015 8.09962 17.2465V17.2465C8.07157 17.477 7.98997 17.6977 7.86134 17.8909C7.73272 18.0842 7.56065 18.2447 7.35889 18.3595C7.15714 18.4743 6.9313 18.5403 6.69946 18.5523C6.46762 18.5642 6.23621 18.5217 6.02374 18.4281L3.03503 21.6253C3.02487 21.6378 3.01932 21.6533 3.01932 21.6694C3.01932 21.6854 3.02487 21.701 3.03503 21.7134C3.04258 21.7271 3.05426 21.738 3.06841 21.7447C3.08255 21.7513 3.09844 21.7534 3.11381 21.7504L7.3814 20.7588C7.4082 20.529 7.48826 20.3085 7.61523 20.115C7.74219 19.9216 7.91255 19.7604 8.11276 19.6443C8.31296 19.5282 8.5375 19.4605 8.76849 19.4464C8.99949 19.4324 9.23057 19.4724 9.44338 19.5634C9.75987 19.7019 10.1043 19.7649 10.4493 19.7472C10.7944 19.7295 11.1306 19.6316 11.4312 19.4614L12.6406 18.7617V24.9801H13.8314V18.0713L14.874 17.4736L15.9166 18.0713V24.9801H17.1074V18.7432L18.3168 19.4614C18.6175 19.6354 18.9548 19.7364 19.3016 19.7565C19.6484 19.7767 19.9951 19.7153 20.3139 19.5773V19.5773C20.5261 19.4847 20.7572 19.4435 20.9883 19.4572C21.2194 19.4709 21.444 19.539 21.6438 19.656C21.845 19.772 22.0164 19.9333 22.1443 20.1272C22.2722 20.3211 22.3531 20.5421 22.3805 20.7727L26.6435 21.7643C26.6595 21.7669 26.6759 21.7648 26.6907 21.7582C26.7055 21.7516 26.7181 21.7409 26.7269 21.7273C26.7367 21.7109 26.7402 21.6916 26.7368 21.6728C26.7333 21.6541 26.7233 21.6372 26.7084 21.6253V21.6253ZM14.874 16.0789L13.8314 15.4765V14.2717L14.874 13.674L15.9166 14.2764V15.4765L14.874 16.0789ZM13.8314 9.59174C13.8314 9.31523 13.9413 9.05005 14.1368 8.85453C14.3323 8.65901 14.5975 8.54917 14.874 8.54917C15.1505 8.54917 15.4157 8.65901 15.6112 8.85453C15.8067 9.05005 15.9166 9.31523 15.9166 9.59174V11.6769L14.874 12.2793L13.8314 11.6769V9.59174ZM10.8381 18.3957C10.5985 18.5339 10.3137 18.5713 10.0465 18.4996C9.7793 18.4279 9.55151 18.253 9.41326 18.0134C9.275 17.7738 9.23761 17.489 9.3093 17.2218C9.38099 16.9546 9.55589 16.7268 9.79553 16.5886L11.5841 15.5645L12.6267 16.1669V17.367L10.8381 18.3957ZM20.3325 18.0157C20.2643 18.1338 20.1736 18.2372 20.0654 18.3202C19.9573 18.4032 19.8339 18.4641 19.7022 18.4994C19.5705 18.5347 19.4332 18.5437 19.2981 18.5259C19.1629 18.5081 19.0326 18.4638 18.9146 18.3957L17.1074 17.3531V16.1484L18.1454 15.5506L19.9525 16.5932C20.073 16.6613 20.1787 16.7529 20.2633 16.8625C20.3479 16.9721 20.4098 17.0975 20.4452 17.2313C20.4806 17.3652 20.4888 17.5048 20.4695 17.6419C20.4501 17.779 20.4035 17.9108 20.3325 18.0296V18.0157Z" fill="#474847" opacity=".6"/></g></g><path d="M14.874 0.593262C12.0495 0.593262 9.28846 1.43082 6.93998 3.00003C4.59149 4.56924 2.76107 6.79961 1.68019 9.40911C0.599297 12.0186 0.316487 14.89 0.867519 17.6602C1.41855 20.4305 2.77868 22.9751 4.7759 24.9723C6.77312 26.9695 9.31774 28.3297 12.088 28.8807C14.8582 29.4317 17.7296 29.1489 20.3391 28.068C22.9486 26.9871 25.179 25.1567 26.7482 22.8082C28.3174 20.4597 29.1549 17.6987 29.1549 14.8742C29.1549 12.9988 28.7856 11.1417 28.0679 9.40911C27.3502 7.67647 26.2983 6.10215 24.9722 4.77604C23.6461 3.44994 22.0717 2.39801 20.3391 1.68033C18.6065 0.962649 16.7494 0.593262 14.874 0.593262V0.593262ZM24.9198 24.9199C22.5936 27.2418 19.5344 28.6853 16.2633 29.0046C12.9922 29.3239 9.7116 28.4991 6.98041 26.6708C4.24921 24.8425 2.2364 22.1238 1.28491 18.9779C0.333407 15.832 0.502085 12.4535 1.7622 9.41806C3.02232 6.38258 5.29592 3.8779 8.19564 2.33075C11.0954 0.783606 14.4418 0.289704 17.6648 0.933196C20.8879 1.57669 23.7881 3.31776 25.8714 5.85979C27.9547 8.40182 29.0922 11.5875 29.0901 14.8742C29.0914 16.7409 28.7236 18.5894 28.0079 20.3134C27.2922 22.0375 26.2427 23.603 24.9198 24.9199Z" fill="url(#paint3_linear_2276_122037)"/><path d="M14.874 12.3765V12.2977L13.8361 11.6953L13.7619 11.737L14.874 12.3765Z" fill="#EBEBEB"/><path d="M14.874 8.56756V8.49806C14.7278 8.49744 14.5829 8.52579 14.4477 8.58146C14.3125 8.63713 14.1897 8.71902 14.0863 8.82241C13.9829 8.9258 13.901 9.04863 13.8453 9.18383C13.7897 9.31904 13.7613 9.46392 13.7619 9.61013V11.737L13.8314 11.6953V9.61013C13.8327 9.334 13.9429 9.06953 14.1382 8.87427C14.3334 8.67901 14.5979 8.56878 14.874 8.56756Z" fill="url(#paint4_linear_2276_122037)"/><path d="M14.874 13.5903L13.7619 14.2298L13.8361 14.2715L14.874 13.6737V13.5903Z" fill="#1A1A1A"/><path d="M14.874 1.26945V1.19531C14.8622 1.19985 14.8517 1.20734 14.8436 1.21708C14.8355 1.22681 14.83 1.23846 14.8277 1.25092L13.5534 5.4212L13.6368 5.3934L14.874 1.26945Z" fill="#fff"/><path d="M12.7147 11.1208V9.6102C12.7142 9.27381 12.7922 8.94194 12.9427 8.64106C13.0931 8.34018 13.3118 8.07861 13.5812 7.87721V7.87721C13.7716 7.73425 13.9267 7.54952 14.0346 7.33722C14.1424 7.12493 14.2001 6.89072 14.2032 6.65263C14.2064 6.41454 14.1548 6.1789 14.0526 5.96384C13.9504 5.74878 13.8002 5.56003 13.6137 5.41211L13.5302 5.43991C13.7153 5.57842 13.8656 5.75817 13.9691 5.96488C14.0726 6.1716 14.1264 6.39959 14.1264 6.63076C14.1264 6.86193 14.0726 7.08992 13.9691 7.29664C13.8656 7.50335 13.7153 7.6831 13.5302 7.82161C13.2511 8.02874 13.0243 8.29844 12.8682 8.60906C12.7121 8.91967 12.631 9.26256 12.6313 9.6102V11.0003L12.7147 11.1208Z" fill="url(#paint5_linear_2276_122037)"/><path d="M6.64465 8.91989L12.6406 12.3859L12.7147 12.3442L6.74196 8.89209L6.64465 8.91989Z" fill="gray"/><path d="M12.6406 13.5856L12.7147 13.6273V12.3438L12.6406 12.3855V13.5856Z" fill="#F2F2F2"/><path d="M6.74196 8.89173L7.26556 7.98354L7.23776 7.88623L6.64465 8.91953L6.74196 8.89173Z" fill="#fff"/><path d="M12.6406 11.0093L7.23776 7.88623L7.26556 7.98354L12.7147 11.1298L12.6406 11.0093Z" fill="#EBEBEB"/><path d="M14.874 12.3765V12.2977L15.912 11.6953L15.9861 11.737L14.874 12.3765Z" fill="#F2F2F2"/><path d="M14.874 8.56755V8.49805C15.169 8.49805 15.4518 8.61521 15.6604 8.82377C15.8689 9.03232 15.9861 9.31518 15.9861 9.61012V11.737L15.912 11.6953V9.61012C15.912 9.33442 15.8028 9.06993 15.6082 8.87455C15.4137 8.67916 15.1497 8.56878 14.874 8.56755V8.56755Z" fill="url(#paint6_linear_2276_122037)"/><path d="M14.874 13.5903L15.9861 14.2298L15.912 14.2715L14.874 13.6737V13.5903Z" fill="gray"/><path d="M14.8787 1.2695V1.19536C14.8943 1.19479 14.9097 1.19952 14.9223 1.20877C14.9349 1.21802 14.944 1.23125 14.9482 1.24633L16.2178 5.43978L16.1344 5.41198L14.8787 1.2695Z" fill="#F2F2F2"/><path d="M17.038 11.1208V9.6102C17.038 9.27341 16.9592 8.9413 16.8079 8.64039C16.6567 8.33948 16.4371 8.07813 16.1668 7.87721V7.87721C15.9764 7.73425 15.8213 7.54952 15.7135 7.33722C15.6056 7.12493 15.5479 6.89072 15.5448 6.65263C15.5417 6.41454 15.5932 6.1789 15.6954 5.96384C15.7976 5.74878 15.9478 5.56003 16.1344 5.41211L16.2178 5.43991C16.0327 5.57842 15.8825 5.75817 15.779 5.96488C15.6755 6.1716 15.6216 6.39959 15.6216 6.63076C15.6216 6.86193 15.6755 7.08992 15.779 7.29664C15.8825 7.50335 16.0327 7.6831 16.2178 7.82161V7.82161C16.497 8.02874 16.7237 8.29844 16.8799 8.60906C17.036 8.91967 17.1171 9.26256 17.1167 9.6102V11.0003L17.038 11.1208Z" fill="url(#paint7_linear_2276_122037)"/><path d="M23.108 8.91989L17.1074 12.3812L17.0379 12.3442L23.0107 8.89209L23.108 8.91989Z" fill="#1A1A1A"/><path d="M17.1074 13.5856L17.0379 13.6273V12.3438L17.1074 12.3808V13.5856Z" fill="#4D4D4D"/><path d="M23.0107 8.89173L22.4871 7.98354L22.5103 7.88623L23.108 8.91953L23.0107 8.89173Z" fill="#B3B3B3"/><path d="M17.1074 11.0093L22.5103 7.88623 22.4871 7.98354 17.0379 11.1298 17.1074 11.0093zM12.7147 16.1206L12.6406 16.1623V17.3624L12.7147 17.4041V16.1206z" fill="#F2F2F2"/><path d="M9.41558 18.0249L9.35071 18.062C9.42367 18.1886 9.52087 18.2996 9.63676 18.3887C9.75265 18.4777 9.88496 18.543 10.0261 18.5809C10.1673 18.6188 10.3145 18.6284 10.4594 18.6094C10.6043 18.5903 10.744 18.5428 10.8705 18.4697L12.724 17.404L12.6499 17.3623L10.8474 18.4049C10.7286 18.4746 10.5972 18.5201 10.4607 18.5387C10.3242 18.5573 10.1854 18.5487 10.0523 18.5134C9.91913 18.4781 9.79432 18.4167 9.68504 18.3329C9.57576 18.249 9.48417 18.1444 9.41558 18.0249V18.0249Z" fill="url(#paint8_linear_2276_122037)"/><path d="M13.7619 15.5134L14.874 16.1575V16.0741L13.8314 15.4717L13.7619 15.5134Z" fill="#EBEBEB"/><path d="M3.09527 21.6762L3.03503 21.7133C3.04204 21.7273 3.05387 21.7383 3.06835 21.7442C3.08283 21.7502 3.09897 21.7507 3.11381 21.7457L7.3814 20.7541L7.31653 20.6938L3.09527 21.6762Z" fill="url(#paint9_linear_2276_122037)"/><path d="M12.7147 18.6133L11.3941 19.3732C11.1037 19.5426 10.7775 19.6413 10.4418 19.6614C10.1062 19.6816 9.77052 19.6225 9.46191 19.489V19.489C9.24325 19.3958 9.00615 19.3539 8.76879 19.3665C8.53143 19.3792 8.30011 19.4459 8.09256 19.5618C7.88501 19.6777 7.70675 19.8395 7.57143 20.0349C7.43611 20.2303 7.34732 20.4541 7.31189 20.6892L7.37676 20.7494C7.40356 20.5195 7.48362 20.2991 7.61059 20.1056C7.73755 19.9121 7.90791 19.7509 8.10812 19.6349C8.30833 19.5188 8.53286 19.451 8.76385 19.437C8.99485 19.4229 9.22594 19.463 9.43874 19.5539C9.75514 19.6946 10.1 19.7595 10.4459 19.7435C10.7919 19.7274 11.1292 19.6307 11.4312 19.4612L12.6406 18.7616L12.7147 18.6133Z" fill="url(#paint10_linear_2276_122037)"/><path d="M13.8314 24.9798V18.0478L13.7619 18.0107V24.9056L13.8314 24.9798Z" fill="#4D4D4D"/><path d="M14.874 17.4501V17.3667L13.7619 18.0108L13.8314 18.0478L14.874 17.4501Z" fill="#1A1A1A"/><path d="M13.7619 24.9058H12.7147L12.6406 24.9799H13.8314L13.7619 24.9058Z" fill="#666666"/><path d="M12.6406 18.7384V24.9799L12.7147 24.9058V18.6133L12.6406 18.7384Z" fill="#F2F2F2"/><path d="M12.7147 16.1204L12.6406 16.1621L11.6027 15.5597V15.481L12.7147 16.1204Z" fill="gray"/><path d="M9.41559 18.0248L9.35072 18.0619C9.20432 17.806 9.16504 17.5027 9.24142 17.218C9.31781 16.9332 9.50367 16.6903 9.75848 16.5421L11.6119 15.481V15.5597L9.80481 16.6023C9.68582 16.6701 9.58136 16.7607 9.4974 16.8689C9.41344 16.9771 9.35162 17.1008 9.31547 17.2329C9.27932 17.365 9.26956 17.503 9.28674 17.6388C9.30392 17.7747 9.3477 17.9059 9.41559 18.0248Z" fill="url(#paint11_linear_2276_122037)"/><path d="M13.7619 15.5135V14.23L13.8361 14.2717V15.4764L13.7619 15.5135Z" fill="#4D4D4D"/><path d="M3.09066 21.6764L3.03043 21.7135C3.02026 21.7011 3.01471 21.6855 3.01471 21.6695C3.01471 21.6534 3.02026 21.6379 3.03043 21.6254L6.02376 18.4282V18.5116L3.09066 21.6764Z" fill="#fff"/><path d="M10.5555 14.874L9.23486 15.6339C8.94358 15.8019 8.69554 16.0356 8.51052 16.3163C8.32549 16.5971 8.20859 16.9172 8.16912 17.2511V17.2511C8.14365 17.4894 8.06353 17.7185 7.93499 17.9208C7.80645 18.123 7.63297 18.2928 7.42805 18.417C7.22313 18.5412 6.99231 18.6165 6.75355 18.6369C6.5148 18.6573 6.27456 18.6223 6.05154 18.5346V18.4512C6.26431 18.542 6.49529 18.5821 6.72621 18.5683C6.95713 18.5545 7.18169 18.4872 7.38213 18.3717C7.58257 18.2562 7.7534 18.0957 7.88114 17.9028C8.00888 17.7099 8.09002 17.49 8.11815 17.2604C8.1592 16.9162 8.27979 16.5862 8.4704 16.2967C8.66101 16.0072 8.91639 15.766 9.21633 15.5922L10.4303 14.8926L10.5555 14.874Z" fill="url(#paint12_linear_2276_122037)"/><path d="M5.60208 10.7222L11.6027 14.1835V14.2669L5.62988 10.8195L5.60208 10.7222Z" fill="#EBEBEB"/><path d="M12.6406 13.5859L12.7147 13.6276L11.6027 14.2671V14.1837L12.6406 13.5859Z" fill="#F2F2F2"/><path d="M5.62991 10.8195L5.1063 11.7277L5.00436 11.7508L5.6021 10.7222L5.62991 10.8195Z" fill="#fff"/><path d="M10.4118 14.8738L5.00436 11.7507L5.1063 11.7275L10.5508 14.8738H10.4118Z" fill="gray"/><path d="M17.0333 16.1204L17.1028 16.1621L18.1454 15.5597V15.481L17.0333 16.1204Z" fill="#1A1A1A"/><path d="M20.3325 18.0248L20.3881 18.0712C20.461 17.9444 20.5082 17.8044 20.5269 17.6593C20.5456 17.5142 20.5356 17.3669 20.4972 17.2257C20.4589 17.0845 20.3931 16.9523 20.3036 16.8366C20.2142 16.7208 20.1027 16.6239 19.9757 16.5513L18.1222 15.4902V15.569L19.9293 16.6116C20.1695 16.7462 20.3467 16.9703 20.4223 17.2351C20.4978 17.4999 20.4655 17.7838 20.3325 18.0248V18.0248Z" fill="url(#paint13_linear_2276_122037)"/><path d="M15.9861 15.5135V14.23L15.912 14.2717V15.4764L15.9861 15.5135Z" fill="#F2F2F2"/><path d="M26.6574 21.6764L26.7223 21.7135C26.7311 21.7005 26.7357 21.6851 26.7357 21.6695C26.7357 21.6538 26.7311 21.6384 26.7223 21.6254L23.7336 18.4282V18.5116L26.6574 21.6764Z" fill="#CCCCCC"/><path d="M19.1972 14.874L20.5132 15.6339C20.804 15.8025 21.0517 16.0363 21.2366 16.3169C21.4216 16.5976 21.5388 16.9174 21.5789 17.2511C21.6042 17.4899 21.6844 17.7197 21.8132 17.9224C21.942 18.1251 22.116 18.2953 22.3215 18.4196C22.527 18.5439 22.7585 18.6189 22.9978 18.6389C23.2372 18.6588 23.4779 18.6232 23.7011 18.5346V18.4512C23.4884 18.5419 23.2575 18.582 23.0267 18.5685C22.7958 18.5549 22.5712 18.488 22.3706 18.3731C22.1699 18.2582 21.9986 18.0983 21.8701 17.906C21.7416 17.7138 21.6594 17.4944 21.6299 17.265V17.265C21.5896 16.9206 21.4692 16.5904 21.2786 16.3007C21.0879 16.0111 20.8321 15.7701 20.5317 15.5969L19.3409 14.874H19.1972Z" fill="url(#paint14_linear_2276_122037)"/><path d="M24.146 10.7222L18.1454 14.1881V14.2715L24.1228 10.8195L24.146 10.7222Z" fill="#F2F2F2"/><path d="M17.1074 13.5859L17.0379 13.6276L18.1454 14.2717V14.1883L17.1074 13.5859Z" fill="#EBEBEB"/><path d="M24.1228 10.8195L24.6464 11.7277L24.7437 11.7555L24.146 10.7222L24.1228 10.8195Z" fill="#B3B3B3"/><path d="M19.3362 14.8738L24.7437 11.7553L24.6464 11.7275L19.1972 14.8738H19.3362Z" fill="#1A1A1A"/><path d="M17.0333 16.1206L17.1028 16.1623V17.3624L17.0333 17.4041V16.1206Z" fill="#4D4D4D"/><path d="M20.3325 18.0249L20.3881 18.0713C20.2398 18.3261 19.9969 18.5119 19.7122 18.5883C19.4275 18.6647 19.1241 18.6254 18.8682 18.479L17.0148 17.4133L17.0889 17.3716L18.8914 18.4142C19.0111 18.485 19.1438 18.5311 19.2817 18.5498C19.4195 18.5686 19.5597 18.5595 19.694 18.5233C19.8283 18.487 19.9539 18.4242 20.0636 18.3386C20.1732 18.2531 20.2647 18.1464 20.3325 18.0249Z" fill="url(#paint15_linear_2276_122037)"/><path d="M15.9861 15.5134L14.874 16.1575V16.0741L15.912 15.4717L15.9861 15.5134Z" fill="#fff"/><path d="M26.6574 21.6811L26.7223 21.7135C26.7139 21.7276 26.7014 21.7387 26.6865 21.7453C26.6715 21.752 26.6549 21.7538 26.6389 21.7506L22.3759 20.759L22.4408 20.6987L26.6574 21.6811Z" fill="url(#paint16_linear_2276_122037)"/><path d="M17.0379 18.6182L18.3539 19.3781C18.6444 19.5475 18.9706 19.6462 19.3062 19.6663C19.6418 19.6864 19.9775 19.6274 20.2861 19.4939C20.5055 19.4017 20.743 19.3607 20.9806 19.374C21.2182 19.3874 21.4496 19.4546 21.6573 19.5708C21.865 19.6869 22.0435 19.8488 22.1793 20.0443C22.315 20.2397 22.4044 20.4635 22.4408 20.6987L22.3759 20.7589C22.3485 20.5283 22.2676 20.3072 22.1397 20.1134C22.0118 19.9195 21.8404 19.7582 21.6392 19.6422C21.4401 19.5259 21.2165 19.4578 20.9864 19.4433C20.7563 19.4288 20.526 19.4684 20.3139 19.5588V19.5588C19.9965 19.6996 19.6506 19.7641 19.3038 19.7472C18.957 19.7303 18.619 19.6325 18.3168 19.4615L17.1074 18.7618L17.0379 18.6182Z" fill="url(#paint17_linear_2276_122037)"/><path d="M15.912 24.9798V18.0478L15.9861 18.0107V24.9056L15.912 24.9798Z" fill="#F2F2F2"/><path d="M14.874 17.4501V17.3667L15.9861 18.0108L15.912 18.0478L14.874 17.4501Z" fill="gray"/><path d="M15.9861 24.9106H17.0379L17.1074 24.9802H15.912L15.9861 24.9106Z" fill="#666666"/><path d="M17.1074 18.7433V24.9802L17.0379 24.9107V18.6182L17.1074 18.7433Z" fill="#4D4D4D"/><path d="M15.1474 1.06547L15.7544 3.00697L15.8054 2.9421L15.203 1.03767C15.1745 0.971933 15.1272 0.916137 15.067 0.877362C15.0068 0.838586 14.9364 0.818581 14.8647 0.819884V0.889389C14.9241 0.887072 14.9827 0.902616 15.0331 0.934008C15.0835 0.965401 15.1233 1.0112 15.1474 1.06547V1.06547Z" fill="url(#paint18_linear_2276_122037)"/><path d="M26.8474 14.874C26.8473 11.8618 25.7114 8.96043 23.6664 6.7488C21.6214 4.53716 18.8176 3.17795 15.8147 2.94238L15.7544 3.00725C17.688 3.1513 19.5572 3.76551 21.1994 4.79646C22.8416 5.82742 24.207 7.24392 25.1771 8.92279C26.1472 10.6017 26.6924 12.4921 26.7655 14.4297C26.8385 16.3673 26.4372 18.2934 25.5963 20.0406H25.6797C26.4508 18.4275 26.8498 16.6619 26.8474 14.874V14.874Z" fill="url(#paint19_linear_2276_122037)"/><path d="M27.0281 21.5001L25.6797 20.0312H25.5963L26.9864 21.5326C27.0183 21.5815 27.0353 21.6386 27.0353 21.697C27.0353 21.7555 27.0183 21.8126 26.9864 21.8615L27.0466 21.894C27.0791 21.8392 27.0966 21.7769 27.0976 21.7133C27.0967 21.6368 27.0725 21.5624 27.0281 21.5001V21.5001Z" fill="url(#paint20_linear_2276_122037)"/><path d="M26.991 21.871C26.9604 21.9241 26.9142 21.9664 26.8586 21.9921C26.803 22.0178 26.7408 22.0257 26.6806 22.0147L24.7066 21.5791L24.7391 21.6579L26.6713 22.0842H26.7315C26.7964 22.0839 26.86 22.0667 26.9161 22.0342C26.9722 22.0017 27.0188 21.955 27.0513 21.8988L26.991 21.871Z" fill="url(#paint21_linear_2276_122037)"/><path d="M24.7066 21.5791C23.6143 23.1798 22.1476 24.4897 20.4341 25.3948C18.7206 26.3 16.8119 26.7732 14.874 26.7732C12.9361 26.7732 11.0275 26.3 9.31393 25.3948C7.60039 24.4897 6.13375 23.1798 5.04141 21.5791L5.00897 21.6579C6.10939 23.2577 7.5824 24.5659 9.30101 25.4697C11.0196 26.3735 12.9323 26.8458 14.874 26.8458C16.8158 26.8458 18.7284 26.3735 20.447 25.4697C22.1656 24.5659 23.6386 23.2577 24.7391 21.6579L24.7066 21.5791Z" fill="url(#paint22_linear_2276_122037)"/><path d="M3.01652 22.0886H3.06749L5.00899 21.6623L5.04143 21.5835L3.05359 22.0191C2.99868 22.0226 2.94388 22.0106 2.89551 21.9844C2.84713 21.9581 2.80716 21.9188 2.7802 21.8708L2.71533 21.9032C2.74579 21.957 2.78939 22.0023 2.84206 22.0347C2.89473 22.0671 2.95475 22.0856 3.01652 22.0886V22.0886Z" fill="url(#paint23_linear_2276_122037)"/><path d="M2.72458 21.4955C2.6761 21.5612 2.6501 21.6409 2.65044 21.7225C2.64758 21.786 2.66371 21.849 2.69678 21.9033L2.78018 21.8708C2.74828 21.8219 2.7313 21.7647 2.7313 21.7063C2.7313 21.6479 2.74828 21.5908 2.78018 21.5418L4.17028 20.0405H4.08687L2.72458 21.4955Z" fill="url(#paint24_linear_2276_122037)"/><path d="M2.90529 14.874C2.90276 16.6584 3.30018 18.4207 4.06833 20.0313H4.15174C3.31294 18.2849 2.91308 16.3601 2.98689 14.4241C3.0607 12.4881 3.60593 10.5993 4.57527 8.92181C5.5446 7.24431 6.90873 5.82876 8.54923 4.79805C10.1897 3.76733 12.057 3.15261 13.989 3.00725L13.9334 2.94238C10.9312 3.17906 8.12863 4.53875 6.08459 6.75027C4.04054 8.96179 2.9053 11.8626 2.90529 14.874V14.874Z" fill="url(#paint25_linear_2276_122037)"/><path d="M14.5358 1.03785L13.9334 2.94228L13.989 3.00715L14.6006 1.06565C14.6239 1.01235 14.6621 0.966925 14.7106 0.934857C14.7591 0.902789 14.8159 0.885452 14.874 0.884938V0.815433C14.802 0.815127 14.7315 0.836064 14.6713 0.875626C14.6112 0.915188 14.564 0.971616 14.5358 1.03785V1.03785Z" fill="url(#paint26_linear_2276_122037)"/><path d="M129.895 34.0065C129.895 34.0065 128.723 34.0899 127.504 34.2011 127.615 33.9046 127.773 33.6405 127.921 33.2744 127.921 33.2744 126.133 33.6961 125.85 34.3402L125.387 34.3958C124.757 34.5456 124.193 34.8951 123.779 35.392L125.433 35.2113C124.803 36.555 123.765 38.7097 123.765 38.7097L125.512 38.4965C126.165 37.0184 126.679 35.9295 127.134 35.0074L127.907 34.9008C128.637 34.7468 129.323 34.43 129.914 33.9741M78.8323 38.0236C79.81 38.0236 80.4773 38.2506 80.8248 38.7001 81.1723 39.1496 81.1538 39.752 80.7599 40.5026 80.3762 41.4503 79.673 42.2339 78.7721 42.7175 77.6907 43.2992 76.4783 43.5943 75.2505 43.5747 74.2682 43.5747 73.6148 43.3523 73.2858 42.8889 72.9568 42.4256 72.9846 41.8371 73.3692 41.1003 73.9558 40.0768 74.8244 39.2436 75.8714 38.7001 76.7877 38.2162 77.8155 37.9829 78.8509 38.0236H78.8323zM77.1827 39.1635C76.5078 39.5507 75.9578 40.1231 75.598 40.8131 74.8149 42.3144 75.4451 42.8565 76.0336 42.8148 76.9047 42.7546 77.5859 42.1939 78.128 41.3598 78.5914 40.6555 78.8926 40.0624 78.8787 39.5481 78.8648 39.0337 78.4524 38.5379 77.1827 39.1635M59.1347 36.6061C59.1347 36.6061 57.8002 36.5783 57.1422 37.3382L54.0469 40.883 53.4955 37.1065C52.8119 37.1964 52.1385 37.3516 51.4845 37.5699L52.1795 42.6206 53.9774 42.4167 59.1347 36.6061zM56.2108 41.5593C60.9881 42.0227 64.5143 40.5121 64.0649 39.3444 63.8471 38.7837 63.254 38.5011 61.8129 38.0516 60.8862 37.769 62.3134 36.8747 65.1028 36.9952L65.6032 36.3511C65.6032 36.3511 62.7165 36.3511 60.8677 36.9952 59.4498 37.4585 58.5508 38.3852 59.6722 38.8486 60.7935 39.312 61.5905 39.4047 61.8454 39.8402 62.3087 40.6418 59.6861 41.1515 56.8642 40.9199L56.2108 41.5593zM110.364 38.515C109.919 38.7859 109.455 39.0229 108.974 39.224 108.432 39.4603 107.26 39.8078 106.82 39.5947 106.152 39.2703 106.694 38.4872 106.694 38.4872 106.694 38.4872 110.244 37.8339 110.429 37.7505 110.772 37.5883 111.685 36.1982 110.48 35.707 109.382 35.2437 106.194 36.1241 105.165 38.4872 104.572 39.8356 105.221 40.3036 105.772 40.4704 106.472 40.6466 107.203 40.6545 107.906 40.4934 108.61 40.3323 109.265 40.0068 109.818 39.5437L110.364 38.515zM109.391 36.2538C110.091 36.1704 109.391 37.3242 109.09 37.44 108.425 37.6461 107.743 37.7904 107.051 37.8709 107.051 37.8709 108.098 36.4113 109.391 36.2538M50.0759 40.9106C49.5001 41.2185 48.9022 41.4834 48.2873 41.703 47.5737 41.9671 45.9983 42.3563 45.3403 42.1015 45.2161 42.0624 45.1032 41.9938 45.0113 41.9016 44.9193 41.8094 44.8511 41.6963 44.8124 41.572 44.7737 41.4477 44.7656 41.3159 44.789 41.1878 44.8123 41.0597 44.8664 40.9391 44.9464 40.8365 44.9464 40.8365 49.645 40.2526 50.0435 40.021 50.4419 39.7893 51.4984 38.2416 49.7191 37.6578 48.0973 37.1342 43.8112 38.0934 42.8289 40.7948 42.2589 42.347 43.2598 42.8985 44.0614 43.1116 46.3134 43.6815 48.7599 42.8382 49.5338 42.0783L50.0759 40.9106zM48.2734 38.2787C49.2418 38.1907 48.5282 39.5576 48.088 39.6688 47.1103 39.868 45.3079 40.0395 45.3079 40.0395 45.3079 40.0395 46.5172 38.4687 48.2919 38.2972M116.995 38.7653C116.068 39.0202 115.642 39.0433 116.068 38.0703 116.351 37.4169 117.667 35.1094 117.667 35.1094 117.667 35.1094 116.606 35.1974 115.892 35.2716 113.575 35.5264 112.366 36.6617 111.796 37.5884 111.013 38.8348 111.166 39.7523 111.921 39.9052 113.052 40.1415 114.655 38.6124 114.655 38.6124 114.62 38.7427 114.62 38.8798 114.653 39.0104 114.686 39.1411 114.753 39.261 114.846 39.3586 114.939 39.4563 115.055 39.5284 115.184 39.5681 115.313 39.6079 115.45 39.6138 115.582 39.5855 115.981 39.5588 116.369 39.4382 116.712 39.2333L116.995 38.7653zM113.288 38.6263C112.718 38.7375 112.88 37.922 113.246 37.366 113.537 36.9368 113.933 36.5893 114.396 36.3565 114.859 36.1237 115.374 36.0134 115.892 36.0361 115.892 36.0361 114.966 38.2927 113.288 38.6263zM91.3478 37.0232C92.9418 36.8842 92.8908 37.3708 92.8908 37.3708 93.9272 36.74 95.1536 36.497 96.3522 36.685 96.0235 36.9739 95.6572 37.2171 95.2633 37.4078 94.179 37.9361 93.5117 37.0279 92.4831 38.4319 92.0197 39.0759 90.6806 41.7171 90.6806 41.7171L88.6325 42.0137C89.6102 40.2853 91.3432 37.0232 91.3432 37.0232M119.414 34.9609C120.938 34.7709 120.716 35.3918 120.716 35.3918 121.692 34.736 122.871 34.4531 124.038 34.5948 123.722 34.8867 123.37 35.1374 122.991 35.3408 121.953 35.9015 121.277 35.035 120.285 36.4483 119.8 37.3204 119.379 38.2263 119.025 39.159L117.268 39.3814C118.334 37.1989 119.414 34.9609 119.414 34.9609M83.3501 42.6713C81.1909 42.6713 81.4272 41.5685 81.6866 40.9105 82.0344 40.1653 82.4259 39.4412 82.859 38.742 83.0761 38.4342 83.3478 38.1687 83.6606 37.9589 84.2024 37.7379 84.7686 37.5823 85.3472 37.4955 85.3472 37.4955 84.2537 39.4185 83.795 40.5028 83.4289 41.3693 83.2575 41.9299 84.4622 41.777 85.2916 41.6751 85.667 41.2812 86.3157 40.2665 86.779 39.5158 87.3073 38.501 87.5668 37.9913 87.8262 37.4816 88.4935 37.2639 89.7955 37.2129 89.7955 37.2129 88.6093 39.3397 88.0348 40.4194 87.2053 41.9763 85.287 42.6667 83.364 42.6806" fill="#1F140F"/><path d="M68.7866 45.6784C71.1034 41.8973 73.0125 38.5842 75.7371 35.4843C75.7371 35.4843 73.4666 35.5585 73.1422 36.0311L70.362 40.016C70.362 40.016 69.4075 37.1246 69.1619 36.0635C68.5803 36.0837 68.0046 36.1866 67.4521 36.3693C67.4521 36.3693 68.6383 40.1319 69.1387 41.4988C69.157 41.5948 69.1518 41.6938 69.1235 41.7874C69.0953 41.881 69.0449 41.9664 68.9766 42.0363C68.8607 42.2124 68.7402 42.3885 68.6244 42.5553C66.0759 42.8287 47.2401 44.8443 44.724 44.9509C42.62 45.0111 40.5313 44.5762 38.6261 43.6812C36.8514 42.824 36.1193 42.0873 34.8821 41.3969C36.241 41.1478 37.5713 40.7628 38.8532 40.2477C42.9447 38.7001 45.6647 35.5446 40.0811 34.6873C35.7718 34.0247 22.5196 36.5408 22.5196 36.5408C22.8502 36.7802 23.2261 36.9498 23.6245 37.039C24.0228 37.1282 24.4352 37.1353 24.8364 37.0598C26.4721 36.7308 28.4645 36.3601 30.4524 36.0728C29.2801 37.866 25.0727 44.2836 22.4871 47.9952C22.4871 47.9952 26.2774 47.8423 26.8428 46.9341C27.1069 46.5124 28.4831 44.0705 29.9241 41.5127C31.7776 42.5321 36.1332 45.3308 37.0368 45.734C38.1868 46.1829 39.4296 46.3421 40.6557 46.1973C47.8378 45.734 62.6099 43.7091 68.1888 43.2503L65.5337 47.1658C72.5167 46.1927 129.696 40.0392 129.696 40.0392L132.258 39.2422C132.258 39.2422 82.7756 44.5848 68.7773 45.6784H68.7866ZM33.2001 35.7345C35.415 35.5121 37.3704 35.4797 38.5566 35.8272C41.5453 36.7215 38.1442 38.8206 35.9015 39.7519C33.9668 40.4929 31.9715 41.065 29.938 41.4617C31.2308 39.1773 32.5653 36.8281 33.1816 35.7345" fill="#1F140F"/><path d="M104.503 34.099C104.104 34.7801 103.599 35.8088 103.113 36.8792L99.8367 37.273C100.402 35.9802 100.889 34.8589 101.255 34.0295C100.788 34.0622 100.324 34.121 99.8645 34.2055C99.5086 34.2679 99.1595 34.3641 98.8219 34.4928C99.0294 34.5782 99.2068 34.7233 99.3316 34.9099C98.1639 37.0923 96.0185 41.675 96.0185 41.675L97.9739 41.4757C98.4883 40.3498 98.9794 39.1913 99.4289 38.1719C100.272 37.9959 101.778 37.7781 102.747 37.6437C101.931 39.4508 101.231 41.1282 101.231 41.1282L102.96 40.9475C103.944 38.4019 105.097 35.925 106.412 33.5337C106.412 33.5337 104.878 33.4317 104.498 34.0804" fill="#1F140F"/></g><defs><linearGradient id="paint3_linear_2276_122037" x1="4.828" y1="4.828" x2="24.92" y2="24.92" gradientUnits="userSpaceOnUse"><stop stop-color="#EDEDED"/><stop offset=".64" stop-color="#666666"/><stop offset="1" stop-color="#E6E6E6"/></linearGradient><linearGradient id="paint4_linear_2276_122037" x1="15.977" y1="10.115" x2="13.753" y2="10.115" gradientUnits="userSpaceOnUse"><stop stop-color="#fff"/><stop offset=".18" stop-color="#CDCDCD"/><stop offset=".37" stop-color="#9F9F9F"/><stop offset=".55" stop-color="#7C7C7C"/><stop offset=".72" stop-color="#626262"/><stop offset=".88" stop-color="#525252"/><stop offset="1" stop-color="#4D4D4D"/></linearGradient><linearGradient id="paint5_linear_2276_122037" x1="13.424" y1="5.556" x2="13.424" y2="10.773" gradientUnits="userSpaceOnUse"><stop stop-color="#C6C8CA"/><stop offset=".12" stop-color="#CFD0D2"/><stop offset=".32" stop-color="#E6E7E7"/><stop offset=".48" stop-color="#fff"/><stop offset="1" stop-color="#F0F1F1"/></linearGradient><linearGradient id="paint6_linear_2276_122037" x1="15.977" y1="10.115" x2="13.753" y2="10.115" gradientUnits="userSpaceOnUse"><stop stop-color="#F2F2F2"/><stop offset=".05" stop-color="#E6E6E6"/><stop offset=".27" stop-color="#B8B8B8"/><stop offset=".48" stop-color="#959595"/><stop offset=".68" stop-color="#7B7B7B"/><stop offset=".86" stop-color="#6B6B6B"/><stop offset="1" stop-color="#666666"/></linearGradient><linearGradient id="paint7_linear_2276_122037" x1="16.329" y1="5.412" x2="16.329" y2="11.441" gradientUnits="userSpaceOnUse"><stop stop-color="#4D4D4D"/><stop offset=".07" stop-color="#525252"/><stop offset=".15" stop-color="#616161"/><stop offset=".24" stop-color="#7A7A7A"/><stop offset=".34" stop-color="#9C9C9C"/><stop offset=".44" stop-color="#C8C8C8"/><stop offset=".54" stop-color="#fff"/><stop offset=".63" stop-color="#CBCBCB"/><stop offset=".71" stop-color="#9E9E9E"/><stop offset=".8" stop-color="#7B7B7B"/><stop offset=".87" stop-color="#616161"/><stop offset=".94" stop-color="#525252"/><stop offset="1" stop-color="#4D4D4D"/></linearGradient><linearGradient id="paint8_linear_2276_122037" x1="10.973" y1="17.622" x2="10.778" y2="17.27" gradientUnits="userSpaceOnUse"><stop stop-color="#fff"/><stop offset="1" stop-color="#666666"/></linearGradient><linearGradient id="paint9_linear_2276_122037" x1="4.407" y1="20.411" x2="4.495" y2="20.504" gradientUnits="userSpaceOnUse"><stop stop-color="#fff"/><stop offset=".08" stop-color="#E5E5E5"/><stop offset=".25" stop-color="#AFAFAF"/><stop offset=".43" stop-color="#838383"/><stop offset=".59" stop-color="#606060"/><stop offset=".74" stop-color="#474747"/><stop offset=".88" stop-color="#383838"/><stop offset="1" stop-color="#333333"/></linearGradient><linearGradient id="paint10_linear_2276_122037" x1="12.534" y1="18.224" x2="7.734" y2="20.439" gradientUnits="userSpaceOnUse"><stop stop-color="#1A1A1A"/><stop offset=".12" stop-color="#1E1E1E"/><stop offset=".23" stop-color="#292929"/><stop offset=".33" stop-color="#3C3C3C"/><stop offset=".43" stop-color="#565656"/><stop offset=".53" stop-color="#787878"/><stop offset=".63" stop-color="#9C9C9C"/><stop offset=".76" stop-color="#646464"/><stop offset=".86" stop-color="#3C3C3C"/><stop offset=".95" stop-color="#232323"/><stop offset="1" stop-color="#1A1A1A"/></linearGradient><linearGradient id="paint11_linear_2276_122037" x1="10.741" y1="17.381" x2="10.375" y2="16.542" gradientUnits="userSpaceOnUse"><stop stop-color="#666666"/><stop offset="1" stop-color="#333333"/></linearGradient><linearGradient id="paint12_linear_2276_122037" x1="10.82" y1="15.629" x2="5.889" y2="18.238" gradientUnits="userSpaceOnUse"><stop stop-color="#E0E0E0"/><stop offset=".15" stop-color="#D6D6D6"/><stop offset=".41" stop-color="#BCBCBC"/><stop offset=".59" stop-color="#A6A6A6"/><stop offset=".62" stop-color="#BFBFBF"/><stop offset=".68" stop-color="#DBDBDB"/><stop offset=".73" stop-color="#EFEFEF"/><stop offset=".78" stop-color="#FBFBFB"/><stop offset=".83" stop-color="#fff"/><stop offset="1" stop-color="#ADADAD"/></linearGradient><linearGradient id="paint13_linear_2276_122037" x1="20.708" y1="17.645" x2="19.832" y2="17.066" gradientUnits="userSpaceOnUse"><stop stop-color="#FEFEFE"/><stop offset=".25" stop-color="#C8C8C8"/><stop offset=".49" stop-color="#9E9E9E"/><stop offset=".7" stop-color="#7F7F7F"/><stop offset=".87" stop-color="#6D6D6D"/><stop offset="1" stop-color="#666666"/></linearGradient><linearGradient id="paint14_linear_2276_122037" x1="19.197" y1="16.746" x2="23.72" y2="16.746" gradientUnits="userSpaceOnUse"><stop stop-color="#E0E0E0"/><stop offset=".15" stop-color="#D6D6D6"/><stop offset=".41" stop-color="#BCBCBC"/><stop offset=".59" stop-color="#A6A6A6"/><stop offset=".65" stop-color="#BFBFBF"/><stop offset=".74" stop-color="#DBDBDB"/><stop offset=".83" stop-color="#EFEFEF"/><stop offset=".91" stop-color="#FBFBFB"/><stop offset="1" stop-color="#fff"/></linearGradient><linearGradient id="paint15_linear_2276_122037" x1="20.064" y1="18.623" x2="19.188" y2="18.044" gradientUnits="userSpaceOnUse"><stop stop-color="#fff"/><stop offset=".12" stop-color="#F8F8F8"/><stop offset=".31" stop-color="#E5E5E5"/><stop offset=".52" stop-color="#C5C5C5"/><stop offset=".76" stop-color="#999999"/><stop offset="1" stop-color="#666666"/></linearGradient><linearGradient id="paint16_linear_2276_122037" x1="26.12" y1="20.5" x2="26.013" y2="20.55" gradientUnits="userSpaceOnUse"><stop stop-color="#CCCCCC"/><stop offset=".12" stop-color="#BABABA"/><stop offset=".32" stop-color="#A1A1A1"/><stop offset=".53" stop-color="#8E8E8E"/><stop offset=".75" stop-color="#848484"/><stop offset="1" stop-color="gray"/></linearGradient><linearGradient id="paint17_linear_2276_122037" x1="17.038" y1="19.689" x2="22.441" y2="19.689" gradientUnits="userSpaceOnUse"><stop stop-color="#999999"/><stop offset=".09" stop-color="#949494"/><stop offset=".19" stop-color="#868686"/><stop offset=".3" stop-color="#6F6F6F"/><stop offset=".41" stop-color="#4F4F4F"/><stop offset=".52" stop-color="#262626"/><stop offset=".55" stop-color="#1A1A1A"/><stop offset=".6" stop-color="#202020"/><stop offset=".66" stop-color="#313131"/><stop offset=".73" stop-color="#4E4E4E"/><stop offset=".8" stop-color="#767676"/><stop offset=".88" stop-color="#A9A9A9"/><stop offset=".97" stop-color="#E6E6E6"/><stop offset="1" stop-color="#fff"/></linearGradient><linearGradient id="paint18_linear_2276_122037" x1="15.764" y1="1.909" x2="13.952" y2="1.909" gradientUnits="userSpaceOnUse"><stop stop-color="#CCCCCC"/><stop offset="1" stop-color="#3D3D3D"/></linearGradient><linearGradient id="paint19_linear_2276_122037" x1="28.849" y1="17.608" x2="12.006" y2=".765" gradientUnits="userSpaceOnUse"><stop stop-color="#fff"/><stop offset="1" stop-color="#221A0D"/></linearGradient><linearGradient id="paint20_linear_2276_122037" x1="25.86" y1="21.936" x2="26.277" y2="21.074" gradientUnits="userSpaceOnUse"><stop stop-color="#fff"/><stop offset=".14" stop-color="#FAFAFA"/><stop offset=".31" stop-color="#ECECEC"/><stop offset=".48" stop-color="#D5D5D5"/><stop offset=".67" stop-color="#B4B4B4"/><stop offset=".86" stop-color="#8B8B8B"/><stop offset="1" stop-color="#666666"/></linearGradient><linearGradient id="paint21_linear_2276_122037" x1="155.255" y1="45.459" x2="155.373" y2="44.316" gradientUnits="userSpaceOnUse"><stop stop-color="#fff"/><stop offset=".14" stop-color="#FAFAFA"/><stop offset=".31" stop-color="#ECECEC"/><stop offset=".48" stop-color="#D5D5D5"/><stop offset=".67" stop-color="#B4B4B4"/><stop offset=".86" stop-color="#8B8B8B"/><stop offset="1" stop-color="#666666"/></linearGradient><linearGradient id="paint22_linear_2276_122037" x1="847.287" y1="324.835" x2="751.878" y2="-32.585" gradientUnits="userSpaceOnUse"><stop stop-color="#fff"/><stop offset="1" stop-color="#221A0D"/></linearGradient><linearGradient id="paint23_linear_2276_122037" x1="3.985" y1="21.991" x2="3.475" y2="20.907" gradientUnits="userSpaceOnUse"><stop stop-color="#F2F2F2"/><stop offset="1" stop-color="#1A1A1A"/></linearGradient><linearGradient id="paint24_linear_2276_122037" x1="15.511" y1="108.576" x2="13.209" y2="104.58" gradientUnits="userSpaceOnUse"><stop stop-color="#F2F2F2"/><stop offset="1" stop-color="#1A1A1A"/></linearGradient><linearGradient id="paint25_linear_2276_122037" x1="528.827" y1="905.579" x2="-38.423" y2="537.564" gradientUnits="userSpaceOnUse"><stop stop-color="#fff"/><stop offset="1" stop-color="#221A0D"/></linearGradient><linearGradient id="paint26_linear_2276_122037" x1="45.934" y1="9.845" x2="42.256" y2="9.845" gradientUnits="userSpaceOnUse"><stop stop-color="#CCCCCC"/><stop offset="1" stop-color="#3D3D3D"/></linearGradient><radialGradient id="paint0_radial_2276_122037" cx="0" cy="0" r="1" gradientUnits="userSpaceOnUse" gradientTransform="translate(10.095 10.422) scale(17.1169)"><stop stop-color="#EC8988"/><stop offset=".13" stop-color="#EC8583"/><stop offset=".27" stop-color="#EA7975"/><stop offset=".43" stop-color="#E8645E"/><stop offset=".59" stop-color="#E5483D"/><stop offset=".72" stop-color="#E22E1F"/><stop offset="1" stop-color="#E0040B"/></radialGradient><radialGradient id="paint1_radial_2276_122037" cx="0" cy="0" r="1" gradientUnits="userSpaceOnUse" gradientTransform="translate(-8.821 -8.82) scale(49.642)"><stop offset=".21" stop-color="#ABB0C5"/><stop offset=".33" stop-color="#D5D8E3"/><stop offset=".45" stop-color="#FBFCFD"/><stop offset=".53" stop-color="#FBFCFD"/><stop offset=".54" stop-color="#FBFCFD"/><stop offset=".64" stop-color="#B8BFD3"/><stop offset=".74" stop-color="#373E53"/><stop offset=".76" stop-color="#3E455A"/><stop offset=".79" stop-color="#52596D"/><stop offset=".82" stop-color="#737A8C"/><stop offset=".86" stop-color="#A0A7B7"/><stop offset=".9" stop-color="#CBD2E0"/><stop offset=".93" stop-color="#EDF0F5"/><stop offset=".95" stop-color="#FBFCFD"/></radialGradient><radialGradient id="paint2_radial_2276_122037" cx="0" cy="0" r="1" gradientUnits="userSpaceOnUse" gradientTransform="translate(-2.384 -2.382) scale(38.1637)"><stop offset=".21" stop-color="#A8ACC0"/><stop offset=".34" stop-color="#D5D8E1"/><stop offset=".46" stop-color="#FBFCFD"/><stop offset=".54" stop-color="#FBFCFD"/><stop offset=".55" stop-color="#FBFCFD"/><stop offset=".63" stop-color="#B1B7CB"/><stop offset=".74" stop-color="#4C5671"/><stop offset=".76" stop-color="#535D77"/><stop offset=".79" stop-color="#677088"/><stop offset=".82" stop-color="#888FA3"/><stop offset=".86" stop-color="#B5B9C8"/><stop offset=".88" stop-color="#D9DBE6"/><stop offset=".92" stop-color="#EDEFF4"/><stop offset=".94" stop-color="#FBFCFD"/></radialGradient><clipPath id="clip0_2276_122037"><path fill="#fff" d="M0 0H140.075V48H0z"/></clipPath></defs></svg>